<?xml version="1.0" encoding="UTF-8"?>
<!-- Generator: Adobe Illustrator 22.1.0, SVG Export Plug-In . SVG Version: 6.00 Build 0)  -->
<svg xmlns="http://www.w3.org/2000/svg" xmlns:xlink="http://www.w3.org/1999/xlink" version="1.1" id="Ebene_1" x="0px" y="0px" viewBox="0 0 784 213.8" style="enable-background:new 0 0 784 213.8;" xml:space="preserve">
<style type="text/css">
	.st0{fill:#D0D0D0;}
	.st1{fill:#124395;}
	.st2{fill-rule:evenodd;clip-rule:evenodd;fill:#FFFFFF;}
	.st3{fill:#FFFFFF;}
</style>
<path class="st0" d="M95,17.9H26.3c-4.6,0-7.6,3.6-7.6,8.4v21h71.1l-3.2,17.9H18.7v48.6H0V25.3C0,11.6,6.4,0,24.2,0h73.9L95,17.9  L95,17.9z"/>
<path class="st1" d="M114,0v83.4c0,19.6,5,30.4,27.9,30.4h123.8V0h-18.8v96.7h-38c-6,0-8.4-2.1-8.4-7.8V0H182h-0.4v96.7h-38.5  c-7.5,0-10.1-2.7-10.1-10.1V0H114L114,0z"/>
<path class="st1" d="M379.5,17.9h-68.6c-4.6,0-7.6,3.6-7.6,8.4v21h71.1l-3.2,17.9h-67.9v48.6h-18.7V25.3c0-13.7,6.4-25.3,24.2-25.3  h73.9L379.5,17.9L379.5,17.9z"/>
<path class="st2" d="M115.4,213.1h0.8c1.8,0,3.9,0.1,6.3,0.1c2.9,0.1,5.2,0.1,7.2,0.1c5.2,0,8.8-0.8,11.1-2.5  c4.3-3.1,6.8-9.5,6.8-17.5c0-8.6-2.4-15.1-6.7-18.1c-2.5-1.7-5.5-2.5-9.8-2.5c-0.6,0-3.8,0.1-9.4,0.2h-6h-0.4v0.5  c0.1,1.1,0.1,4.3,0.2,9.6l0.1,10.1l-0.1,10c-0.1,5.3-0.1,8.5-0.2,9.6V213.1L115.4,213.1z M122.1,208.8v-0.5l-0.1-7l-0.1-8.3v-1.3  c0-1.6,0-4.5,0.1-8.4c0-2.5,0.1-4.4,0.1-5.5v-0.7c1.5-0.2,4.9-0.4,7.1-0.4c8.1,0,11.8,5.1,11.8,16.4c0,7-1.5,12-4.4,14.2  c-1.6,1.1-4.3,1.8-7.5,1.8l-3.3-0.1c-1.7-0.1-2.7-0.1-3.2-0.2C122.5,208.8,122.4,208.8,122.1,208.8L122.1,208.8z"/>
<path class="st2" d="M180,212.2v-4.8c-3.3,1.5-6.5,2.2-9.8,2.2c-6.6,0-9.7-3.7-9.7-11.7v-1l0.7-0.1c1.1-0.1,4.1-0.1,8.9-0.1  c5.7,0,9,0,10.2,0.1l0.7,0.1c0.1-1.1,0.1-1.6,0.1-2.6c0-4.2-0.5-6.3-2-8.3c-1.9-2.4-5.4-3.6-10.1-3.6c-9.8,0-14.3,5.1-14.3,15.8  c0,10.4,4.7,15.4,14.5,15.4C172.6,213.7,176.6,213.2,180,212.2L180,212.2z M160.8,193.4c0.4-5,2.7-7.2,7.5-7.2  c4.9,0,6.9,1.9,6.9,6.7v0.4h-0.5c-1,0.1-2.9,0.1-5.5,0.1h-1c-3.8,0-6,0-6.7-0.1H160.8L160.8,193.4z"/>
<path class="st2" d="M189,213.1h6.1v-0.6c-0.2-1.9-0.3-5.5-0.4-10.7v-1.3c0-5.1,0.2-7,1.1-9.2c1.1-2.9,3.1-4.3,5.7-4.3  c1.1,0,2.2,0.2,3.7,0.6v-4.3c-1.3-0.5-2.3-0.8-3.5-0.8c-2.4,0-4.5,1-5.8,3c-0.7,0.9-0.8,1.3-1.6,3v-0.8l0.1-3.8v-0.6H189  c0.1,0.3,0.1,0.5,0.1,0.6c0.1,1,0.1,3.4,0.2,7l0.1,7.3l-0.1,7.6c-0.1,3.4-0.1,5.7-0.2,6.7C189,212.6,189,212.8,189,213.1L189,213.1z  "/>
<path class="st3" d="M234.8,213.1h6.7l0.1-0.6l2.2-8.6l2-7.7c1.9-6.9,3.4-12.5,4.1-14.8l0.3-1.1l0.4,1.3l1.7,6.3  c2,7.4,2.8,10.4,4.3,16.6c0.8,3.3,1.4,6,1.9,8.1l0.2,0.6h6.8l0.1-0.6c0.6-1.9,1.5-5.3,2.8-10c1.1-4,1.9-7.1,2.6-9.5l3-10.3l2.7-9.2  l0.2-0.6h-5.7l-0.1,0.6l-1.8,7.6l-2.5,9.9l-1.9,7.6l-1.8,6.4l-0.3,1.2c-0.2-0.5-0.3-0.9-0.4-1.1c-0.1-0.4-0.7-2.5-1.6-6.1l-2-7.7  l-2.3-9.8l-1.9-7.9c-0.1-0.1-0.1-0.3-0.1-0.6h-7.2l-0.1,0.6c-0.3,1.5-0.9,4.2-1.9,8.3c-1.3,5.2-2.1,8.6-2.5,9.9l-1.9,7.4l-1.7,6.3  l-0.3,1.1l-0.4-1.2c-0.1-0.4-0.6-2.4-1.6-6.1c-1-3.7-1.6-6.1-1.9-7.2l-2.3-9.6l-2-8.7l-0.1-0.6h-7.3l0.2,0.6  c2.1,6.7,3.6,11.4,5.8,19.5l2.6,9.2l2.6,10.3L234.8,213.1L234.8,213.1z"/>
<path class="st2" d="M281.2,213.1h6.2c-0.1-0.2-0.1-0.5-0.1-0.6c-0.1-1-0.1-3.2-0.2-6.7l-0.1-7.6l0.1-7.3c0.1-3.8,0.1-6.1,0.2-7  c0-0.1,0-0.3,0.1-0.6h-6.2c0,0.3,0,0.5,0.1,0.6c0.1,1,0.1,3.4,0.1,7l0.1,7.3l-0.1,7.6c0,3.4-0.1,5.7-0.1,6.7  C281.2,212.6,281.2,212.8,281.2,213.1L281.2,213.1z M280.9,174.2c0,2.4,1.1,3.7,3.3,3.7c2.3,0,3.4-1.2,3.4-3.7  c0-2.5-1.1-3.7-3.3-3.7C282,170.5,280.9,171.7,280.9,174.2L280.9,174.2z"/>
<path class="st3" d="M294.9,212.2c4.1,1.1,7.6,1.6,11.2,1.6c7.5,0,12.3-3.7,12.3-9.5c0-2.6-1.1-5.1-3.1-6.4c-1.7-1.2-3.2-1.8-7-2.8  c-3.5-0.9-4.2-1.1-5.2-1.7c-1.3-0.7-2-1.7-2-3.1c0-2.5,2.2-3.9,5.8-3.9c2.5,0,5.5,0.7,9.1,2v-5.3c-0.8,0-1,0-2.3-0.1  c-3.4-0.4-5.7-0.5-7.5-0.5c-6.7,0-11,3.4-11,8.6c0,2.4,1,4.6,2.8,5.9c1.4,1,2.8,1.6,5.8,2.5c1.9,0.5,3.1,0.9,3.7,1.1  c0.9,0.2,1.7,0.5,2.4,1c0.5,0.2,1,0.5,1.3,1c0.7,0.7,1,1.7,1,2.7c0,2.8-2.5,4.6-6.7,4.6c-3.3,0-6.6-0.8-10.7-2.7V212.2L294.9,212.2z  "/>
<path class="st3" d="M324.2,212.2c4.1,1.1,7.6,1.6,11.2,1.6c7.5,0,12.3-3.7,12.3-9.5c0-2.6-1.1-5.1-3.1-6.4c-1.7-1.2-3.2-1.8-7-2.8  c-3.5-0.9-4.2-1.1-5.2-1.7c-1.3-0.7-2-1.7-2-3.1c0-2.5,2.2-3.9,5.8-3.9c2.5,0,5.5,0.7,9.1,2v-5.3c-0.8,0-1,0-2.3-0.1  c-3.4-0.4-5.7-0.5-7.5-0.5c-6.7,0-11,3.4-11,8.6c0,2.4,1,4.6,2.8,5.9c1.4,1,2.8,1.6,5.8,2.5c1.9,0.5,3.1,0.9,3.7,1.1  c0.9,0.2,1.7,0.5,2.4,1c0.5,0.2,1,0.5,1.3,1c0.7,0.7,1,1.7,1,2.7c0,2.8-2.5,4.6-6.7,4.6c-3.3,0-6.6-0.8-10.7-2.7V212.2L324.2,212.2z  "/>
<path class="st2" d="M379.2,212.2v-4.8c-3.3,1.5-6.5,2.2-9.8,2.2c-6.6,0-9.7-3.7-9.7-11.7v-1l0.7-0.1c1.1-0.1,4.1-0.1,8.9-0.1  c5.7,0,9,0,10.2,0.1l0.7,0.1c0.1-1.1,0.1-1.6,0.1-2.6c0-4.2-0.5-6.3-2-8.3c-1.9-2.4-5.4-3.6-10.1-3.6c-9.8,0-14.3,5.1-14.3,15.8  c0,10.4,4.7,15.4,14.5,15.4C371.8,213.7,375.8,213.2,379.2,212.2L379.2,212.2z M360,193.4c0.4-5,2.7-7.2,7.5-7.2  c4.9,0,6.9,1.9,6.9,6.7v0.4h-0.5c-1,0.1-2.9,0.1-5.5,0.1h-1c-3.8,0-6,0-6.7-0.1H360L360,193.4z"/>
<path class="st2" d="M388.2,213.1h6.2l-0.1-0.6l-0.1-5.4l-0.1-6.6l0.1-5.7c0-3.6,0.4-5.1,1.5-6.3c1.3-1.4,3.1-2,5.9-2  c2.3,0,4,0.5,5.1,1.4c1.4,1.2,1.9,2.8,1.9,6.4l-0.1,5.4l-0.1,8.8v0.7c0,1.9,0,2.3,0.2,3.9h6.4c-0.4-1.6-0.4-2.2-0.4-4.4  c-0.1-2.8-0.1-7-0.1-10.3v-3c0-0.6,0.1-1.1,0.1-1.7c0-4.2-0.2-5.5-1-7c-0.5-1-1.3-1.8-2.3-2.4c-1.9-1.2-4.3-1.7-7.4-1.7  c-4.5,0-7.7,1.2-9.9,3.7v-0.7l-0.1-1.7l0.1-0.6h-5.7c0.1,0.3,0.1,0.5,0.1,0.6c0.1,1,0.1,3.4,0.2,7l0.1,7.3l-0.1,7.6  c-0.1,3.4-0.1,5.7-0.2,6.7C388.3,212.6,388.3,212.8,388.2,213.1L388.2,213.1z"/>
<path class="st3" d="M422.3,212.2c4.1,1.1,7.6,1.6,11.2,1.6c7.5,0,12.3-3.7,12.3-9.5c0-2.6-1.1-5.1-3.1-6.4c-1.7-1.2-3.2-1.8-7-2.8  c-3.5-0.9-4.2-1.1-5.2-1.7c-1.3-0.7-2-1.7-2-3.1c0-2.5,2.2-3.9,5.8-3.9c2.5,0,5.5,0.7,9.1,2v-5.3c-0.8,0-1,0-2.3-0.1  c-3.4-0.4-5.7-0.5-7.5-0.5c-6.7,0-11,3.4-11,8.6c0,2.4,1,4.6,2.8,5.9c1.4,1,2.8,1.6,5.8,2.5c1.9,0.5,3.1,0.9,3.7,1.1  c0.9,0.2,1.7,0.5,2.4,1c0.5,0.2,1,0.5,1.3,1c0.7,0.7,1,1.7,1,2.7c0,2.8-2.5,4.6-6.7,4.6c-3.3,0-6.6-0.8-10.7-2.7V212.2L422.3,212.2z  "/>
<path class="st3" d="M474.6,182.9l-0.7-0.1c-1.6-0.2-3.7-0.3-4.6-0.4c-0.9-0.1-1.8-0.1-2.8-0.1c-5.4,0-8.6,1-10.8,3.4  c-2.6,2.8-3.9,7-3.9,12.3c0,5.2,1.1,9,3.6,11.7c2.4,2.7,5.2,3.8,9.9,3.8c3.3,0,6.4-0.5,9.3-1.6v-4.6c-2.1,1.2-5.5,2-8.2,2  c-5.7,0-8.5-3.9-8.5-11.7c0-8.3,2.4-11.5,8.6-11.5c2.5,0,5.2,0.5,8,1.4V182.9L474.6,182.9z"/>
<path class="st3" d="M482.8,213.1h6.2l-0.1-0.6c-0.1-1.6-0.1-4.1-0.1-7.5c-0.1-3.3-0.1-6.1-0.1-8.4v-0.7c0-4,0.4-5.9,1.4-7.2  c1.2-1.4,3.3-2.2,6-2.2c5.2,0,7,2,7,7.6v0.5l-0.2,11.8v1.4c0,2.6,0,3.3,0.2,5.3h6.3c-0.4-3.7-0.5-7-0.5-12.5c0-2.2,0-4.6,0.1-7.3  v-0.7c0-3.9-0.5-5.8-1.9-7.2c-1.9-1.9-5-3-9-3c-4,0-6.8,1-9.3,3.2c0-0.5-0.1-0.8-0.1-1c0-0.4,0.1-2.5,0.1-6.2l0.2-7.5l0.1-0.6h-6.4  l0.1,0.6l0.2,11.4l0.1,10.3l-0.1,10.2l-0.2,9.7L482.8,213.1L482.8,213.1z"/>
<path class="st2" d="M536.9,208.1c0,2.1,0.1,3.7,0.4,4.9h5.4c-0.6-2.6-0.8-6.6-0.8-13.3v-0.8l0.1-5.5v-0.7c0-4.7-0.4-6.1-2-7.6  c-2-1.9-4.8-2.6-9.6-2.6c-1.7,0-3.5,0.1-5.3,0.3c-2,0.2-3.6,0.4-4.5,0.4c-0.1,0-0.3,0-0.5-0.1l-0.3,4.9c3.6-1.1,6.6-1.6,9.7-1.6  c4.9,0,6.9,1.4,6.9,5.1v1.6v0.7c-2-0.1-4.9-0.2-6.5-0.2c-8.6,0-13.1,3.4-13.1,10.1c0,6.6,3.7,10.1,10.5,10.1  C531.9,213.7,534.9,212.1,536.9,208.1L536.9,208.1z M536.1,197.3v0.3c0,3.1-0.3,5.5-0.8,7.3c-0.9,2.9-3.6,4.8-6.9,4.8  c-3.8,0-6.1-2.3-6.1-6.1c0-4.6,2.8-6.6,9.2-6.6c1.3,0,2.2,0,4,0.2L536.1,197.3L536.1,197.3z"/>
<path class="st3" d="M553,213.1h6.2l-0.1-0.6c-0.1-1.6-0.1-4.2-0.1-7.6c0-3.1-0.1-5.6-0.1-7.5c-0.1-2.9-0.1-4.8-0.1-5.7V187v-0.5  h0.7l3.3,0.1c2.2,0.1,2.6,0.1,4.1,0.2l0.4-3.6h-0.5c-1.7,0.1-3.9,0.2-6.3,0.2h-1.1h-0.6v-0.6l0.1-2.9c0.1-3,0.2-3.7,1-4.6  c0.8-0.8,1.8-1.1,3.4-1.1c1.5,0,3,0.2,4.8,0.7v-4.6c-0.7,0.1-0.8,0.1-1.6,0.1H566h-2.7c-3.5,0-5.4,0.3-6.8,1.1  c-2.2,1.1-3.1,3.4-3.1,7.2v4.2v0.5c-0.4,0.1-0.5,0.1-0.7,0.1c-0.2,0-0.6,0-1.1-0.1h-1.1c-0.1,0-0.3-0.1-0.5-0.1v3.5l0.5-0.1l1.1-0.1  l1.2-0.1h0.5v0.6l-0.1,5l-0.1,5.5l-0.1,7.4l-0.1,7.5V213.1L553,213.1z"/>
<path class="st3" d="M588.7,212.8V209c-1.9,0.5-3,0.6-4.2,0.6c-2.4,0-3.7-1-3.9-3.3c-0.1-1.1-0.1-1.6-0.2-5.1v-4.1l-0.1-4.4v-5.6  v-0.5h0.6h3.6c2,0,3.3,0.1,3.9,0.1c0.2,0,0.2,0,0.4,0.1l0.4-3.7c-1.7,0.2-2.3,0.2-4.6,0.2l-3.7,0.1h-0.6v-1c0-0.4,0-1.3,0.1-2.9  l0.1-4l0.1-0.7l-6,1.7l0.1,0.5l0.1,3.4v2.4v0.6h-0.5h-1.4c-0.4-0.1-0.8-0.1-1.3-0.1l-0.4-0.1v3.5h0.4l1.6-0.1h1.1h0.6v0.7l0.1,4.4  l-0.1,4.8l-0.1,4.4c-0.1,3.1-0.2,5.2-0.2,6.1c0,4.6,2.5,6.8,7.6,6.8C584.4,213.7,586.1,213.5,588.7,212.8L588.7,212.8z"/>
<path class="st3" d="M594,212.2c4.1,1.1,7.6,1.6,11.2,1.6c7.5,0,12.3-3.7,12.3-9.5c0-2.6-1.1-5.1-3.1-6.4c-1.7-1.2-3.2-1.8-7-2.8  c-3.5-0.9-4.2-1.1-5.2-1.7c-1.3-0.7-2-1.7-2-3.1c0-2.5,2.2-3.9,5.8-3.9c2.5,0,5.5,0.7,9.1,2v-5.3c-0.8,0-1,0-2.3-0.1  c-3.4-0.4-5.7-0.5-7.5-0.5c-6.7,0-11,3.4-11,8.6c0,2.4,1,4.6,2.8,5.9c1.4,1,2.8,1.6,5.8,2.5c1.9,0.5,3.1,0.9,3.7,1.1  c0.9,0.2,1.7,0.5,2.4,1c0.5,0.2,1,0.5,1.3,1c0.7,0.7,1,1.7,1,2.7c0,2.8-2.5,4.6-6.7,4.6c-3.3,0-6.6-0.8-10.7-2.7V212.2L594,212.2z"/>
<path class="st3" d="M625.3,213.1h6.2l-0.1-0.6c-0.1-1.6-0.1-4.2-0.1-7.6c0-3.1-0.1-5.6-0.1-7.5c-0.1-2.9-0.1-4.8-0.1-5.7V187v-0.5  h0.7l3.3,0.1c2.2,0.1,2.6,0.1,4.1,0.2l0.4-3.6h-0.5c-1.7,0.1-3.9,0.2-6.3,0.2h-1.1h-0.6v-0.6l0.1-2.9c0.1-3,0.2-3.7,1-4.6  c0.8-0.8,1.8-1.1,3.4-1.1c1.5,0,3,0.2,4.8,0.7v-4.6c-0.7,0.1-0.8,0.1-1.6,0.1h-0.5h-2.7c-3.5,0-5.4,0.3-6.8,1.1  c-2.2,1.1-3.1,3.4-3.1,7.2v4.2v0.5c-0.4,0.1-0.5,0.1-0.7,0.1c-0.2,0-0.6,0-1.1-0.1h-1.1c-0.1,0-0.3-0.1-0.5-0.1v3.5l0.5-0.1l1.1-0.1  l1.2-0.1h0.5v0.6l-0.1,5l-0.1,5.5l-0.1,7.4l-0.1,7.5V213.1L625.3,213.1z"/>
<path class="st2" d="M641.4,198.1c0,10.7,4.6,15.7,14.5,15.7c9.8,0,14.6-4.9,14.6-15.3c0-11-4.5-16-14.5-16  C645.9,182.5,641.4,187.4,641.4,198.1L641.4,198.1z M647.6,198.1c0-8.3,2.4-11.7,8.3-11.7c5.8,0,8.4,3.6,8.4,11.4  c0,8.6-2.4,12.1-8.3,12.1C650,209.9,647.6,206.4,647.6,198.1L647.6,198.1z"/>
<path class="st2" d="M678,213.1h6.2l-0.1-0.6L684,207l-0.1-6.6l0.1-5.7c0-3.6,0.4-5.1,1.5-6.3c1.3-1.4,3.1-2,5.9-2  c2.3,0,4,0.5,5.1,1.4c1.4,1.2,1.9,2.8,1.9,6.4l-0.1,5.4l-0.1,8.8v0.7c0,1.9,0,2.3,0.2,3.9h6.4c-0.4-1.6-0.4-2.2-0.4-4.4  c-0.1-2.8-0.1-7-0.1-10.3v-3c0-0.6,0.1-1.1,0.1-1.7c0-4.2-0.2-5.5-1-7c-0.5-1-1.3-1.8-2.3-2.4c-1.9-1.2-4.3-1.7-7.4-1.7  c-4.5,0-7.7,1.2-9.9,3.7v-0.7l-0.1-1.7l0.1-0.6H678c0.1,0.3,0.1,0.5,0.1,0.6c0.1,1,0.1,3.4,0.2,7l0.1,7.3l-0.1,7.6  c-0.1,3.4-0.1,5.7-0.2,6.7C678,212.6,678,212.8,678,213.1L678,213.1z"/>
<path class="st2" d="M734.3,208.2c0,2.4,0.1,3.7,0.2,4.9h5.6c-0.4-1.9-0.5-3.9-0.7-7c-0.1-2.9-0.2-8.6-0.2-14.5  c0-7.8,0.2-17.8,0.3-20.9v-0.4h-6.1v0.5c0.1,1.4,0.1,3.6,0.2,6.3c0.1,2.2,0.1,4,0.1,5.1v0.7l-0.1,0.7c-0.9-0.3-1.2-0.4-1.8-0.5  c-1.5-0.4-3.4-0.5-5.2-0.5c-9.1,0-14.2,5.9-14.2,16.3c0,10,4.2,14.9,12.6,14.9C730.1,213.7,732.6,212.2,734.3,208.2L734.3,208.2z   M733.6,187.5l0.1,0.7v2.6c0,3.1-0.1,6.5-0.1,9.5c-0.1,1.9-0.2,3.5-0.7,4.8c-0.8,2.8-3.4,4.6-6.7,4.6c-5.1,0-7.6-3.7-7.6-11.3  c0-8.1,2.9-12,8.9-12C729.5,186.4,731.3,186.7,733.6,187.5L733.6,187.5z"/>
<path class="st3" d="M747.1,212.2c4.1,1.1,7.6,1.6,11.2,1.6c7.5,0,12.3-3.7,12.3-9.5c0-2.6-1.1-5.1-3.1-6.4c-1.7-1.2-3.2-1.8-7-2.8  c-3.5-0.9-4.2-1.1-5.2-1.7c-1.3-0.7-2-1.7-2-3.1c0-2.5,2.2-3.9,5.8-3.9c2.5,0,5.5,0.7,9.1,2v-5.3c-0.8,0-1,0-2.3-0.1  c-3.4-0.4-5.7-0.5-7.5-0.5c-6.7,0-11,3.4-11,8.6c0,2.4,1,4.6,2.8,5.9c1.4,1,2.8,1.6,5.8,2.5c1.9,0.5,3.1,0.9,3.7,1.1  c0.9,0.2,1.7,0.5,2.4,1c0.5,0.2,1,0.5,1.3,1c0.7,0.7,1,1.7,1,2.7c0,2.8-2.5,4.6-6.7,4.6c-3.3,0-6.6-0.8-10.7-2.7V212.2L747.1,212.2z  "/>
<path class="st3" d="M777.4,210c0,2.5,1.1,3.7,3.3,3.7c2.3,0,3.4-1.2,3.4-3.6c0-2.6-1.1-3.8-3.3-3.8  C778.4,206.2,777.4,207.5,777.4,210L777.4,210z"/>
</svg>