<?xml version="1.0" encoding="UTF-8"?>
<svg xmlns:cc="http://creativecommons.org/ns#" xmlns="http://www.w3.org/2000/svg" xmlns:rdf="http://www.w3.org/1999/02/22-rdf-syntax-ns#" xmlns:svg="http://www.w3.org/2000/svg" xmlns:dc="http://purl.org/dc/elements/1.1/" viewBox="0 0 174.66667 71.768135" height="71.768135" width="174.66667" xml:space="preserve" id="svg834" version="1.1"><metadata id="metadata840"><rdf:RDF><cc:Work rdf:about=""><dc:format>image/svg+xml</dc:format><dc:type rdf:resource="http://purl.org/dc/dcmitype/StillImage"/><dc:title/></cc:Work></rdf:RDF></metadata><defs id="defs838"><clipPath id="clipPath850" clipPathUnits="userSpaceOnUse"><path id="path848" d="M 0,53.826 H 131 V 0 H 0 Z"/></clipPath></defs><g transform="matrix(1.3333333,0,0,-1.3333333,0,71.768133)" id="g842"><g id="g844"><g clip-path="url(#clipPath850)" id="g846"><g transform="translate(7.7939,48.9902)" id="g852"><path id="path854" style="fill:#3458b0;fill-opacity:1;fill-rule:nonzero;stroke:none" d="m 0,0 c 0.752,0 2.299,-0.06 4.641,-0.179 1.783,-0.096 3.201,-0.143 4.254,-0.143 l 9.893,0.258 c 0.838,0 1.257,-0.291 1.257,-0.871 0,-0.515 -0.376,-0.816 -1.128,-0.902 -1.697,-0.172 -2.831,-0.489 -3.4,-0.95 -0.569,-0.462 -1.01,-1.529 -1.321,-3.204 -0.312,-1.674 -0.467,-5.463 -0.467,-11.366 0,-6.784 0.107,-12.027 0.322,-15.73 0.214,-3.703 0.649,-5.99 1.305,-6.859 0.655,-0.869 1.745,-1.304 3.271,-1.304 1.052,0 1.579,-0.279 1.579,-0.838 0,-0.752 -0.569,-1.128 -1.708,-1.128 -0.322,0 -0.795,0.011 -1.418,0.032 -4.04,0.28 -6.8,0.419 -8.282,0.419 -3.244,0 -5.64,-0.096 -7.187,-0.29 -0.817,-0.085 -1.397,-0.129 -1.74,-0.129 -0.795,0 -1.192,0.312 -1.192,0.935 0,0.494 0.333,0.784 0.999,0.87 1.825,0.236 3.056,0.746 3.69,1.531 0.633,0.784 1.015,2.669 1.144,5.656 0.129,2.986 0.193,7.626 0.193,13.921 0,6.639 -0.118,11.081 -0.354,13.326 -0.237,2.245 -0.629,3.626 -1.177,4.141 -0.548,0.516 -1.595,0.838 -3.142,0.967 -0.817,0.064 -1.224,0.398 -1.224,0.999 C -1.192,-0.279 -0.795,0 0,0"/></g><g transform="translate(7.7939,48.9902)" id="g856"><path id="path858" style="fill:none;stroke:#1162a5;stroke-width:0.75;stroke-linecap:butt;stroke-linejoin:miter;stroke-miterlimit:4;stroke-dasharray:none;stroke-opacity:1" d="m 0,0 c 0.752,0 2.299,-0.06 4.641,-0.179 1.783,-0.096 3.201,-0.143 4.254,-0.143 l 9.893,0.258 c 0.838,0 1.257,-0.291 1.257,-0.871 0,-0.515 -0.376,-0.816 -1.128,-0.902 -1.697,-0.172 -2.831,-0.489 -3.4,-0.95 -0.569,-0.462 -1.01,-1.529 -1.321,-3.204 -0.312,-1.674 -0.467,-5.463 -0.467,-11.366 0,-6.784 0.107,-12.027 0.322,-15.73 0.214,-3.703 0.649,-5.99 1.305,-6.859 0.655,-0.869 1.745,-1.304 3.271,-1.304 1.052,0 1.579,-0.279 1.579,-0.838 0,-0.752 -0.569,-1.128 -1.708,-1.128 -0.322,0 -0.795,0.011 -1.418,0.032 -4.04,0.28 -6.8,0.419 -8.282,0.419 -3.244,0 -5.64,-0.096 -7.187,-0.29 -0.817,-0.085 -1.397,-0.129 -1.74,-0.129 -0.795,0 -1.192,0.312 -1.192,0.935 0,0.494 0.333,0.784 0.999,0.87 1.825,0.236 3.056,0.746 3.69,1.531 0.633,0.784 1.015,2.669 1.144,5.656 0.129,2.986 0.193,7.626 0.193,13.921 0,6.639 -0.118,11.081 -0.354,13.326 -0.237,2.245 -0.629,3.626 -1.177,4.141 -0.548,0.516 -1.595,0.838 -3.142,0.967 -0.817,0.064 -1.224,0.398 -1.224,0.999 C -1.192,-0.279 -0.795,0 0,0 Z"/></g><g transform="translate(46.1201,48.9257)" id="g860"><path id="path862" style="fill:#3458b0;fill-opacity:1;fill-rule:nonzero;stroke:none" d="m 0,0 c 10.29,-11.709 18.871,-21.098 25.746,-28.166 0.021,1.46 0.032,2.403 0.032,2.832 l 0.032,12.747 c 0,3.004 -0.172,5.155 -0.516,6.453 -0.343,1.299 -1.074,2.322 -2.191,3.074 -1.117,0.751 -2.417,1.191 -3.899,1.32 -0.795,0.085 -1.193,0.419 -1.193,0.999 0,0.623 0.365,0.934 1.096,0.934 0.408,0 0.935,-0.039 1.579,-0.117 1.225,-0.137 3.018,-0.205 5.382,-0.205 2.965,0 5.22,0.078 6.767,0.234 0.645,0.059 1.193,0.088 1.644,0.088 0.816,0 1.225,-0.311 1.225,-0.934 0,-0.602 -0.548,-0.956 -1.644,-1.064 -1.354,-0.129 -2.616,-0.697 -3.787,-1.706 -1.171,-1.01 -1.756,-2.995 -1.756,-5.958 l 0.161,-18.226 -0.225,-13.718 c 0,-1.18 -0.366,-1.771 -1.096,-1.771 -0.194,0 -0.419,0.065 -0.677,0.194 -0.258,0.129 -1.735,1.616 -4.431,4.463 -2.696,2.847 -6.703,7.262 -12.02,13.245 -5.318,5.983 -9.051,10.275 -11.199,12.875 -0.044,-0.58 -0.065,-5.984 -0.065,-16.21 0,-3.158 0.134,-5.635 0.403,-7.428 0.269,-1.794 1.107,-3.094 2.514,-3.9 1.406,-0.805 2.679,-1.208 3.819,-1.208 0.73,0 1.095,-0.28 1.095,-0.838 0,-0.645 -0.386,-0.967 -1.16,-0.967 -0.494,0 -1.117,0.043 -1.869,0.129 -1.289,0.172 -2.933,0.258 -4.931,0.258 -3.201,0 -5.522,-0.097 -6.96,-0.29 -0.903,-0.108 -1.547,-0.161 -1.934,-0.161 -0.838,0 -1.257,0.354 -1.257,1.063 0,0.516 0.677,0.827 2.03,0.935 2.428,0.193 3.948,1.031 4.56,2.513 0.613,1.483 0.919,3.502 0.919,6.059 0,11.086 -0.06,17.864 -0.177,20.335 -0.119,2.47 -0.892,4.705 -2.321,6.703 -1.429,1.998 -3.153,3.19 -5.172,3.577 -0.838,0.15 -1.257,0.483 -1.257,0.999 0,0.709 0.441,1.064 1.322,1.064 0.214,0 0.526,-0.022 0.934,-0.065 C -9.982,0.118 -9.09,0.097 -7.801,0.097 -5.007,0.097 -2.407,0.064 0,0"/></g><g transform="translate(46.1201,48.9257)" id="g864"><path id="path866" style="fill:none;stroke:#1162a5;stroke-width:0.75;stroke-linecap:butt;stroke-linejoin:miter;stroke-miterlimit:4;stroke-dasharray:none;stroke-opacity:1" d="m 0,0 c 10.29,-11.709 18.871,-21.098 25.746,-28.166 0.021,1.46 0.032,2.403 0.032,2.832 l 0.032,12.747 c 0,3.004 -0.172,5.155 -0.516,6.453 -0.343,1.299 -1.074,2.322 -2.191,3.074 -1.117,0.751 -2.417,1.191 -3.899,1.32 -0.795,0.085 -1.193,0.419 -1.193,0.999 0,0.623 0.365,0.934 1.096,0.934 0.408,0 0.935,-0.039 1.579,-0.117 1.225,-0.137 3.018,-0.205 5.382,-0.205 2.965,0 5.22,0.078 6.767,0.234 0.645,0.059 1.193,0.088 1.644,0.088 0.816,0 1.225,-0.311 1.225,-0.934 0,-0.602 -0.548,-0.956 -1.644,-1.064 -1.354,-0.129 -2.616,-0.697 -3.787,-1.706 -1.171,-1.01 -1.756,-2.995 -1.756,-5.958 l 0.161,-18.226 -0.225,-13.718 c 0,-1.18 -0.366,-1.771 -1.096,-1.771 -0.194,0 -0.419,0.065 -0.677,0.194 -0.258,0.129 -1.735,1.616 -4.431,4.463 -2.696,2.847 -6.703,7.262 -12.02,13.245 -5.318,5.983 -9.051,10.275 -11.199,12.875 -0.044,-0.58 -0.065,-5.984 -0.065,-16.21 0,-3.158 0.134,-5.635 0.403,-7.428 0.269,-1.794 1.107,-3.094 2.514,-3.9 1.406,-0.805 2.679,-1.208 3.819,-1.208 0.73,0 1.095,-0.28 1.095,-0.838 0,-0.645 -0.386,-0.967 -1.16,-0.967 -0.494,0 -1.117,0.043 -1.869,0.129 -1.289,0.172 -2.933,0.258 -4.931,0.258 -3.201,0 -5.522,-0.097 -6.96,-0.29 -0.903,-0.108 -1.547,-0.161 -1.934,-0.161 -0.838,0 -1.257,0.354 -1.257,1.063 0,0.516 0.677,0.827 2.03,0.935 2.428,0.193 3.948,1.031 4.56,2.513 0.613,1.483 0.919,3.502 0.919,6.059 0,11.086 -0.06,17.864 -0.177,20.335 -0.119,2.47 -0.892,4.705 -2.321,6.703 -1.429,1.998 -3.153,3.19 -5.172,3.577 -0.838,0.15 -1.257,0.483 -1.257,0.999 0,0.709 0.441,1.064 1.322,1.064 0.214,0 0.526,-0.022 0.934,-0.065 C -9.982,0.118 -9.09,0.097 -7.801,0.097 -5.007,0.097 -2.407,0.064 0,0 Z"/></g><g transform="translate(111.4663,46.1215)" id="g868"><path id="path870" style="fill:#3458b0;fill-opacity:1;fill-rule:nonzero;stroke:none" d="m 0,0 c -4.558,0.301 -7.836,0.452 -9.836,0.452 -5.567,0 -9.717,-2.482 -12.447,-7.445 -0.688,-1.224 -1.321,-1.836 -1.901,-1.836 -0.624,0 -0.935,0.322 -0.935,0.966 0,0.215 0.065,0.516 0.194,0.903 0.064,0.214 0.407,1.547 1.031,3.996 0.193,0.709 0.806,2.674 1.837,5.897 L -5.106,2.546 c 9.518,0 15.103,0.215 16.758,0.645 l 0.193,0.064 c 0.387,0 0.58,-0.214 0.58,-0.644 0,-0.408 -3.481,-5.752 -10.443,-16.029 -4.426,-6.516 -9.659,-14.589 -15.696,-24.222 h 6.898 c 3.867,0 6.746,0.214 8.637,0.644 1.891,0.43 3.884,1.477 5.979,3.142 2.095,1.665 3.626,3.357 4.593,5.076 0.408,0.73 0.881,1.096 1.418,1.096 0.559,0 0.838,-0.312 0.838,-0.935 0,-0.322 -0.097,-0.741 -0.29,-1.257 -0.988,-2.921 -1.934,-6.219 -2.836,-9.893 h -35.997 c -0.731,0 -1.096,0.14 -1.096,0.419 0,0.343 1.021,2.16 3.063,5.45 2.043,3.29 9.545,14.589 22.507,33.898"/></g><g transform="translate(111.4663,46.1215)" id="g872"><path id="path874" style="fill:none;stroke:#1162a5;stroke-width:0.75;stroke-linecap:butt;stroke-linejoin:miter;stroke-miterlimit:4;stroke-dasharray:none;stroke-opacity:1" d="m 0,0 c -4.558,0.301 -7.836,0.452 -9.836,0.452 -5.567,0 -9.717,-2.482 -12.447,-7.445 -0.688,-1.224 -1.321,-1.836 -1.901,-1.836 -0.624,0 -0.935,0.322 -0.935,0.966 0,0.215 0.065,0.516 0.194,0.903 0.064,0.214 0.407,1.547 1.031,3.996 0.193,0.709 0.806,2.674 1.837,5.897 L -5.106,2.546 c 9.518,0 15.103,0.215 16.758,0.645 l 0.193,0.064 c 0.387,0 0.58,-0.214 0.58,-0.644 0,-0.408 -3.481,-5.752 -10.443,-16.029 -4.426,-6.516 -9.659,-14.589 -15.696,-24.222 h 6.898 c 3.867,0 6.746,0.214 8.637,0.644 1.891,0.43 3.884,1.477 5.979,3.142 2.095,1.665 3.626,3.357 4.593,5.076 0.408,0.73 0.881,1.096 1.418,1.096 0.559,0 0.838,-0.312 0.838,-0.935 0,-0.322 -0.097,-0.741 -0.29,-1.257 -0.988,-2.921 -1.934,-6.219 -2.836,-9.893 h -35.997 c -0.731,0 -1.096,0.14 -1.096,0.419 0,0.343 1.021,2.16 3.063,5.45 2.043,3.29 9.545,14.589 22.507,33.898 z"/></g></g></g></g></svg>