<?xml version="1.0" encoding="UTF-8"?>
<!-- Generator: Adobe Illustrator 22.0.1, SVG Export Plug-In . SVG Version: 6.00 Build 0)  -->
<svg xmlns="http://www.w3.org/2000/svg" xmlns:xlink="http://www.w3.org/1999/xlink" version="1.1" id="Ebene_1" x="0px" y="0px" viewBox="0 0 1024 768" style="enable-background:new 0 0 1024 768;" xml:space="preserve">
<style type="text/css">
	.st0{fill:#E6E6E6;}
</style>
<g>
	<path class="st0" d="M377.2,537.9c-62.4,0-121-24.3-165.1-68.4s-68.4-102.7-68.4-165.1s24.3-121,68.4-165.1s102.7-68.4,165.1-68.4   s121,24.3,165.1,68.4c44.1,44.1,68.4,102.7,68.4,165.1s-24.3,121-68.4,165.1C498.2,513.6,439.5,537.9,377.2,537.9z"/>
	<path d="M377.2,71.4c31.5,0,62,6.2,90.7,18.3c27.7,11.7,52.7,28.5,74.1,49.9c21.4,21.4,38.2,46.3,49.9,74.1   c12.1,28.7,18.3,59.2,18.3,90.7s-6.2,62-18.3,90.7c-11.7,27.7-28.5,52.7-49.9,74.1c-21.4,21.4-46.3,38.2-74.1,49.9   c-28.7,12.1-59.2,18.3-90.7,18.3s-62-6.2-90.7-18.3c-27.7-11.7-52.7-28.5-74.1-49.9s-38.2-46.3-49.9-74.1   c-12.1-28.7-18.3-59.2-18.3-90.7s6.2-62,18.3-90.7c11.7-27.7,28.5-52.7,49.9-74.1s46.3-38.2,74.1-49.9   C315.2,77.6,345.7,71.4,377.2,71.4 M377.2,70.4c-129.2,0-234,104.8-234,234s104.8,234,234,234s234-104.8,234-234   S506.4,70.4,377.2,70.4L377.2,70.4z"/>
</g>
<g>
	<path class="st0" d="M752.2,365.4c-20.4,0-36.9-16.6-36.9-36.9s16.6-36.9,36.9-36.9c20.4,0,36.9,16.6,36.9,36.9   S772.5,365.4,752.2,365.4z"/>
	<path d="M752.2,292c20.1,0,36.4,16.3,36.4,36.4s-16.3,36.4-36.4,36.4s-36.4-16.3-36.4-36.4S732.1,292,752.2,292 M752.2,291   c-20.7,0-37.4,16.8-37.4,37.4c0,20.7,16.8,37.4,37.4,37.4s37.4-16.8,37.4-37.4C789.6,307.7,772.8,291,752.2,291L752.2,291z"/>
</g>
<g>
	
		<ellipse transform="matrix(0.7071 -0.7071 0.7071 0.7071 -175.3654 617.4705)" class="st0" cx="657.7" cy="520.4" rx="182" ry="182"/>
	<path d="M657.7,338.9c24.5,0,48.3,4.8,70.7,14.3c21.6,9.1,41,22.2,57.7,38.9c16.7,16.7,29.8,36.1,38.9,57.7   c9.5,22.4,14.3,46.1,14.3,70.7s-4.8,48.3-14.3,70.7c-9.1,21.6-22.2,41-38.9,57.7c-16.7,16.7-36.1,29.8-57.7,38.9   c-22.4,9.5-46.2,14.3-70.7,14.3s-48.3-4.8-70.7-14.3c-21.6-9.1-41-22.2-57.7-38.9c-16.7-16.7-29.8-36.1-38.9-57.7   c-9.5-22.4-14.3-46.2-14.3-70.7s4.8-48.3,14.3-70.7c9.1-21.6,22.2-41,38.9-57.7s36.1-29.8,57.7-38.9   C609.4,343.7,633.2,338.9,657.7,338.9 M657.7,337.9c-100.8,0-182.5,81.7-182.5,182.5s81.7,182.5,182.5,182.5   s182.5-81.7,182.5-182.5S758.5,337.9,657.7,337.9L657.7,337.9z"/>
</g>
<g>
	
		<ellipse transform="matrix(0.9871 -0.1602 0.1602 0.9871 -82.4585 94.4194)" class="st0" cx="544.4" cy="558.7" rx="79.1" ry="79.1"/>
	<path d="M544.4,480.1c43.3,0,78.6,35.2,78.6,78.6s-35.2,78.6-78.6,78.6s-78.6-35.2-78.6-78.6S501.1,480.1,544.4,480.1 M544.4,479.1   c-43.9,0-79.6,35.6-79.6,79.6c0,43.9,35.6,79.6,79.6,79.6c43.9,0,79.6-35.6,79.6-79.6C624,514.7,588.4,479.1,544.4,479.1   L544.4,479.1z"/>
</g>
</svg>